<svg xmlns="http://www.w3.org/2000/svg" width="250" height="250" fill="none" viewBox="0 0 250 250">
<!-- SVG created with Arrow, by QuiverAI (https://quiver.ai) -->
  <path d="m207 219.5-1.8 5.72c-3.09 7.94-11.9 12-20.49 12h-122.8c-9.89 0-21.63-7.08-21.63-16.98v-18.12l2.81 3.03 10.14 4.79 17.9-1.49 117.9 0.77 11.95-4.79 3.23-3.9-0.95 0.56-0.06-0.25 0.13-0.07-0.13 0.07 2.72-0.59 1.1 19.25z" fill="url(#paint0_radial_213_205)" opacity=".25"/>
  <path d="m203.3 197.2-0.18 14.62c0 10.7-9.85 18.43-19.75 18.43h-122.8c-9.9 0-20.3-7.73-20.3-17.63v-15.42l2.81 0.02 10.14 10.85 17.9 2.85 112.8 0.77 13.71-4.37 5.67-10.12z" fill="url(#paint1_linear_213_205)"/>
  <path d="m59.69 213.1h124.6c10.66 0 19.58-8.5 19.06-17.08l-0.37-1.28-33.65-136.7c-1.66-6.67-7.44-10.01-14.33-10.01h-64.98c-7.23 0-13.85 4.19-15.33 10.01l-34.79 137.2c-1.07 8.46 7.87 17.86 19.83 17.86z" fill="url(#paint2_linear_213_205)"/>
  <path d="m60.98 206.2h122c8.85 0 12.29-7.25 11.09-12.1l-29.15-134.5c-1.4-5.8-6.13-8.47-11.93-8.47h-62.57c-5.8 0-9.66 3.24-10.8 8.19l-30.58 134.4c-1.58 7.07 3.79 12.5 11.95 12.5z" fill="#E4D8CD" stroke="#999A9A" stroke-miterlimit="10" stroke-width=".5"/>
  <path d="m167.9 74.57-2.97-14.96c-1.4-5.8-6.13-8.47-11.93-8.47h-62.57c-5.8 0-9.66 3.24-10.8 8.19l-3.82 15.19 92.09 0.05z" fill="url(#paint3_linear_213_205)"/>
  <path d="m132.7 217.2h-21.69c-3.17 0-4.41 1.87-4.41 4.42s1.87 4.33 4 4.33h21.69c2.88 0 4.43-2.04 4.43-4.33 0-2.55-1.46-4.42-4.02-4.42z" fill="url(#paint4_linear_213_205)" stroke="#424242" stroke-miterlimit="10" stroke-width=".7"/>
  <path d="m146.5 202.2h-48.99c-0.61 0-0.87 0.29-0.87 0.73 0 0.43 0.31 0.7 0.75 0.7h48.99c0.76 0 0.99-0.3 0.99-0.7 0-0.44-0.3-0.73-0.87-0.73z" fill="url(#paint5_linear_213_205)"/>
  <path d="m139.7 57.09h-36.31c-2.31 0-4.17-1.86-4.17-4.17v-3.79h44.65v3.79c0 2.31-1.86 4.17-4.17 4.17z" fill="url(#paint6_linear_213_205)"/>
  <path d="m130.9 54.11c0.97 0 1.4-0.5 1.4-1.19 0-0.81-0.52-1.26-1.4-1.26s-1.4 0.56-1.4 1.26c0 0.69 0.52 1.19 1.4 1.19z" fill="url(#paint7_linear_213_205)"/>
  <path d="m127.4 52.92h-10.7c-0.29 0-0.53 0.24-0.53 0.53s0.24 0.53 0.53 0.53h10.7c0.29 0 0.53-0.24 0.53-0.53s-0.24-0.53-0.53-0.53z" fill="url(#paint8_linear_213_205)"/>
  <path d="m154.9 179.3h-89.38c-6.15 0-8.14 6.08-8.14 9.4 0 4.09 3.59 8.01 7.92 8.01h89.38c5.57 0 8.82-4.77 8.82-8.28 0-4.45-3.42-9.13-8.6-9.13z" fill="#FDFDFD" stroke="#D9D9D9" stroke-miterlimit="10" stroke-width=".7"/>
  <path d="m177.7 196.7c6.93 0 9.3-5.58 9.3-8.87 0-5.91-4.36-9.2-9.72-9.2-6.35 0-9.58 4.04-9.58 8.59 0 5.5 4.63 9.48 10 9.48z" fill="url(#paint9_linear_213_205)"/>
  <path d="m177.6 183.3c-1.55 0-2.13 1.27-2.13 2.26v1.22c0 1.24 1.11 2.49 2.27 2.49 1.39 0 2.19-1.4 2.19-2.59v-1.03c0-1.32-0.88-2.35-2.33-2.35z" fill="#FDFDFD"/>
  <path d="m177.7 189.2v1.65" stroke="#FDFDFD" stroke-linecap="round" stroke-miterlimit="10" stroke-width=".7"/>
  <path d="m174.9 187.7c0.59 1.45 1.86 2.26 2.89 2.26 1.29 0 2.49-1.03 3.01-2.26" stroke="#FDFDFD" stroke-linecap="round" stroke-miterlimit="10" stroke-width=".7"/>
  <path d="m43.71 117.9-5 1.47c-1.52 0.47-3.25 3.62-3.98 7.36-0.11 0.58-0.82 0.59-0.97 0.03-1.13-4.17-2.57-6.64-8.62-8.16-0.53-0.14-0.55-0.88-0.02-1.03 6.71-1.94 6.56-2.2 8.59-8.7 0.18-0.6 1.03-0.57 1.16 0.04 1.22 5.98 2.2 7.21 8.84 8.13 0.58 0.08 0.56 0.69 0 0.86z" fill="#000" opacity=".23"/>
  <path d="m229.1 174.1-4.48 1.55c-1.9 0.66-3.13 3.32-4.08 7.3-0.14 0.61-0.9 0.59-1.03-0.01-1.32-6.35-2.77-6.95-8.01-8.53-0.51-0.16-0.51-0.87 0.01-1.02 6.2-1.82 6.61-2.03 8.14-7.55 0.18-0.67 1.1-0.6 1.17 0.08 0.59 5.79 3 7.12 8.28 7.47 0.58 0.04 0.55 0.52 0 0.71z" fill="#00827A" opacity=".7"/>
  <path d="m73.38 28.86-4.49 1.55c-1.9 0.66-3.13 3.32-4.08 7.3-0.14 0.61-0.9 0.59-1.03-0.01-1.32-6.35-2.77-6.95-8.01-8.53-0.51-0.16-0.51-0.87 0.01-1.02 6.2-1.82 6.61-2.03 8.14-7.55 0.18-0.67 1.1-0.6 1.17 0.08 0.59 5.79 3 7.12 8.28 7.47 0.58 0.04 0.55 0.52 0.01 0.71z" fill="#00827A" opacity=".8"/>
  <path d="m112.3 35.82c2.4-0.36 3.14-2.16 2.88-3.51-0.36-1.8-1.71-2.45-3.19-2.22-2.1 0.34-2.94 1.77-2.64 3.42 0.32 1.71 1.59 2.55 2.95 2.31z" fill="#00827A" opacity=".6"/>
  <path d="m230.5 199.6c2.4-0.36 3.14-2.16 2.88-3.51-0.36-1.8-1.71-2.45-3.19-2.22-2.1 0.34-2.94 1.77-2.64 3.42 0.32 1.71 1.59 2.55 2.95 2.31z" fill="#00827A" opacity=".6"/>
  <path d="m46.05 49.46c2.4 0 2.56-1.35 2.56-3.05s-1.35-2.45-2.7-2.45c-1.7 0-2.6 1.2-2.6 2.7 0 1.7 1.05 2.8 2.74 2.8z" fill="#00827A" opacity=".6"/>
  <path d="m14.86 111.2c2.76 0.35 2.95-1.55 3.05-2.9 0.16-2.05-1.34-2.55-2.69-2.55-1.7 0-2.9 1-2.9 2.7 0 1.35 0.85 2.55 2.54 2.75z" fill="#00827A" opacity=".6"/>
  <path d="m43.71 68.86c-8 0-11.7 6.26-11.7 11.58 0 7.27 5.6 11.7 11.7 11.7 7.27 0 11.4-5.23 11.4-10.43 0-6.8-5.07-12.85-11.4-12.85z" fill="#000" opacity=".23"/>
  <path d="m49.68 65.72c-5.7 0.7-6.6 5.49-6.6 7.39 0 5.3 3.93 7.1 6.73 7.1 5.1 0 7.3-4.5 7.3-7.5 0-4.5-3.25-7.5-7.43-6.99z" fill="url(#paint10_linear_213_205)" stroke="#00827A" stroke-miterlimit="10" stroke-width=".7"/>
  <path d="m49.76 74.04 1.15-4.83 1 0.2" stroke="#fff" stroke-linecap="round" stroke-linejoin="round" stroke-miterlimit="10" stroke-width=".7"/>
  <path d="m40.27 84.91 6.74-0.2c0.75 0 1.1-1.1 0.45-1.9-1.05-1.3-1.25-2.05-1.25-3.9 0-2.35-1.45-3.8-2.9-3.8-1.7 0-3.1 1.65-3.1 3.6 0 1.7-0.4 2.8-1.6 4.15-0.8 0.9-0.4 2.1 1.66 2.05z" fill="#FDFDFD" stroke="#00827A" stroke-linecap="round" stroke-linejoin="round" stroke-miterlimit="10" stroke-width=".7"/>
  <path d="m40.81 85.56h5.2" stroke="#00827A" stroke-linecap="round" stroke-linejoin="round" stroke-miterlimit="10" stroke-width=".7"/>
  <path d="m239 62.71-50.27-11.3c-3.35-0.76-5.6 1.4-6.35 5.1l-4.3 17.65c-0.8 3.75 0.7 6.55 4.2 6.95l2 0.3-0.7 5.6c-0.2 1.3 0.8 1.7 2.3 0.9l8.3-4.7 39.7 7.7c3.7 0.8 5-1 5.8-4.7l4-17.3c0.8-3.3-1-5.5-4.68-6.2z" fill="#000" opacity=".23"/>
  <path d="m238.2 62.51-49.1-11.1c-3.35-0.76-5.6 1.4-6.35 5.1l-4.05 16.2c-1 4 0.5 6.8 4 7.2l2 0.3-0.9 6c-0.2 1.3 0.8 1.7 2.3 0.9l8.3-4.7 39.3 7.5c3.7 0.8 5-1 5.8-4.7l4-17.3c0.8-3.3-1.3-4.8-5.3-5.4z" fill="#CBF7BB" stroke="#999A9A" stroke-miterlimit="10" stroke-width=".7"/>
  <path d="m189.9 59.41 32 6.7" stroke="#999A9A" stroke-linecap="round" stroke-miterlimit="10" stroke-width="3"/>
  <path d="m188.3 66.11 45.5 9.5" stroke="#999A9A" stroke-linecap="round" stroke-miterlimit="10" stroke-width="3"/>
  <path d="m187 72.61 22.9 4.5" stroke="#999A9A" stroke-linecap="round" stroke-miterlimit="10" stroke-width="3"/>
  <path d="m192 7.51-54.1 2.1c-3.1 0.1-5 2.6-4.8 6.4l1 17.2c0.2 3.6 1.9 5.3 4.9 5.1l2.6-0.1 0.1 6.2c0 1.3 1.1 1.6 2.4 0.4l6.8-6.6 39.5-2.6c3.2-0.2 4.4-2.6 4.2-6l-1-17.6c-0.1-3-1.7-4.7-3.6-4.5h2z" fill="#000" opacity=".23"/>
  <path d="m189.1 7.11-50.8 2.6c-3.1 0.1-5 2-4.8 5.8l0.8 16.8c0.2 3.8 1.5 5.5 4.5 5.3l2.6-0.1 0.3 6.9c0 1.3 1.1 1.6 2.4 0.4l6.8-6.6 39.1-2.9c3.2-0.2 4.4-2.1 4.2-5.5l-1-17.6c-0.2-3.4-1.8-5.3-4.1-5.1z" fill="#FDFDFD" stroke="#777" stroke-miterlimit="10" stroke-width=".7"/>
  <path d="m141 16.41 41-2.3" stroke="#999A9A" stroke-linecap="round" stroke-miterlimit="10" stroke-width="3"/>
  <path d="m141.7 22.61 44.7-2" stroke="#999A9A" stroke-linecap="round" stroke-miterlimit="10" stroke-width="3"/>
  <path d="m142.4 28.81 23.5-0.5" stroke="#999A9A" stroke-linecap="round" stroke-miterlimit="10" stroke-width="3"/>
  <path d="m168 106-63.1-0.5c-2.7 0-3.9 1.2-4.2 4.2l-0.9 8.2c-0.3 2.5 1.4 4 4.1 4l63.1-0.3-1.4-3.6 2.8-10.7c0.6-1 0.3-1.4-0.4-1.3z" fill="#000" opacity=".23"/>
  <path d="m167.4 105.5-62.8-0.5c-2.4-0.1-3.4 1.5-3.7 4.2l-0.9 8.2c-0.3 2.6 1.2 4 3.6 4l58-0.3 2.1-4.1 4.2-10.2c0.6-0.9 0.2-1.3-0.5-1.3z" fill="#CBF7BB" stroke="#999A9A" stroke-miterlimit="10" stroke-width=".2"/>
  <path d="m106.1 110.8 53.5-0.2" stroke="#999A9A" stroke-linecap="round" stroke-miterlimit="10" stroke-width="3"/>
  <path d="m106.1 115.6 32.5-0.1" stroke="#999A9A" stroke-linecap="round" stroke-miterlimit="10" stroke-width="3"/>
  <path d="m71.21 126.9 69.5-0.5c3.2 0 4.2 2 4.4 4.6l0.6 8.4c0.2 2.8-1.6 4.5-4.8 4.4l-73.7-0.5 2.4-2.9c1.7-1.7 2.1-3.2 2.1-5 0-2.4-0.4-4.4-1.9-6.4-0.8-1.1-0.5-2.1 1.4-2.1z" fill="#000" opacity=".23"/>
  <path d="m71.91 126.5 68.2-0.5c3.2 0 4.2 1.4 4.4 4l0.6 8.4c0.2 2.8-1.4 4.3-4.6 4.3l-72.5-0.5 1.9-2.2c1.3-1.6 1.8-2.8 1.8-5 0-2.4-0.4-4.4-1.9-6.4-0.8-1.1-0.4-2.1 2.1-2.1z" fill="#FEFFFE" stroke="#B3B3B3" stroke-miterlimit="10" stroke-width=".2"/>
  <path d="m79.61 130.7 58-0.2" stroke="#B3B3B3" stroke-linecap="round" stroke-miterlimit="10" stroke-width="3"/>
  <path d="m79.61 136.9 41-0.1" stroke="#B3B3B3" stroke-linecap="round" stroke-miterlimit="10" stroke-width="3"/>
  <path d="m240 114-74.9-0.3c-2.7 0-4.1 1.9-4.1 4.4v28.8c0 2.5 1.1 3.5 3.6 3.5h74.9c2.8 0 4-1.7 4-4.2v-28.5c0-2.5-1.3-3.8-3.5-3.7z" fill="#000" opacity=".23"/>
  <path d="m239.4 113.7-74-0.3c-2.7 0-4.1 1.4-4.1 4.4v28c0 2.8 1.1 3.8 3.6 3.8h74.2c2.8 0 4-1.4 4-4.2v-28c0-2.4-1.3-3.8-3.7-3.7z" fill="#FEFFFE" stroke="#777" stroke-miterlimit="10" stroke-width=".7"/>
  <path d="m169.9 120.2h17.7c1.7 0 2.3 1.2 2.3 2.7v17.7c0 1.7-0.6 2.3-2.3 2.3h-18c-1.4 0-2-0.9-2-2.3v-18c0-1.6 0.8-2.4 2.3-2.4z" fill="url(#paint11_linear_213_205)"/>
  <path d="m196.6 121.9 39.5-0.2" stroke="#777" stroke-linecap="round" stroke-miterlimit="10" stroke-width="3"/>
  <path d="m196.6 128.6 32.5-0.1" stroke="#B3B3B3" stroke-linecap="round" stroke-miterlimit="10" stroke-width="3"/>
  <path d="m196.6 137.7 22-0.1" stroke="#B3B3B3" stroke-linecap="round" stroke-miterlimit="10" stroke-width="3"/>
  <path d="m10.31 147.7 51-10.5c3.7-0.8 5.7 1.7 6.3 4.9l2.8 17.1c0.8 4-0.3 6.5-4.2 7.5l-0.7 5.2c-0.2 1.3-1.1 1.5-2.6 0.7l-8-4.2-38.8 7.2c-3.5 0.7-5.8-0.8-6.6-4.6l-3-16.7c-0.8-3.7 0.5-5.8 3.8-6.6z" fill="#000" opacity=".23"/>
  <path d="m10.31 147.4 50.7-10.2c3.7-0.8 5.7 1 6.3 4.6l2.8 17.1c0.8 4-0.6 6.2-4.1 7.2l-0.8 5.5c-0.2 1.3-1.1 1.5-2.6 0.7l-8-4.2-38.8 7.2c-3.5 0.7-5.5-1-6.3-4.8l-3-16.5c-0.8-3.7 0.5-5.8 3.8-6.6z" fill="#CBF7BB" stroke="#777" stroke-miterlimit="10" stroke-width=".7"/>
  <path d="m13.61 154.1 42-8.5" stroke="#999A9A" stroke-linecap="round" stroke-miterlimit="10" stroke-width="3"/>
  <path d="m14.81 161.1 46-9.3" stroke="#999A9A" stroke-linecap="round" stroke-miterlimit="10" stroke-width="3"/>
  <path d="m16.11 167.1 25.5-4.5" stroke="#999A9A" stroke-linecap="round" stroke-miterlimit="10" stroke-width="3"/>
  <path d="m81.01 81.81 55.7-0.5c3.2 0 4.2 1 4.4 4.2l1.1 11c0.3 3-1.5 4.2-4.7 4.2l-61.7-0.5 2-2.9c1.4-2 2.1-3.7 2.1-6.7 0-2.8-0.2-4.6-1.4-6.6-0.7-1.2 0-2.2 2.5-2.2z" fill="#000" opacity=".23"/>
  <path d="m82.21 81.31 54.5-0.3c3.2 0 4.2 1.3 4.4 4l0.9 11c0.2 2.8-1.6 4.3-4.8 4.2l-61.4-0.2 2-2.9c1.4-2 1.8-3.5 1.8-6.5 0-2.8-0.2-4.6-1.4-6.6-0.7-1.2 0.7-2.7 4-2.7z" fill="#FEFFFE" stroke="#B3B3B3" stroke-miterlimit="10" stroke-width=".2"/>
  <path d="m87.11 86.31 47.5-0.2" stroke="#B3B3B3" stroke-linecap="round" stroke-miterlimit="10" stroke-width="3"/>
  <path d="m87.11 90.61 38-0.1" stroke="#B3B3B3" stroke-linecap="round" stroke-miterlimit="10" stroke-width="3"/>
  <path d="m86.61 94.81 30-0.1" stroke="#B3B3B3" stroke-linecap="round" stroke-miterlimit="10" stroke-width="3"/>
  <path d="m90.91 60.11c-5 0-7.2 3.5-7.2 5.9 0 3.7 3.2 5.5 6.6 5.5 4.6 0 6.9-2.9 6.9-5.8 0-3.4-2.9-5.6-6.3-5.6z" fill="#000" opacity=".23"/>
  <path d="m90.91 60.11c-4.5 0-7.2 2.8-7.2 5.5 0 3 2 4.1 2.6 4.3s0.8-0.2 0.8-0.6c0.1-1.5 1.3-2.8 3.5-2.8s3.3 1 3.5 2.5c0.1 0.6 0.5 0.6 0.9 0.3 1.1-0.9 2.1-2 2.1-3.8 0.1-2.9-2.5-5.4-6.2-5.4z" fill="#B3D1BA" stroke="#999A9A" stroke-miterlimit="10" stroke-width=".2"/>
  <path d="m103 63.61 31.2-0.2" stroke="#FEFFFE" stroke-linecap="round" stroke-miterlimit="10" stroke-width="3"/>
  <path d="m103 68.11 20-0.1" stroke="#B3D1BA" stroke-linecap="round" stroke-miterlimit="10" stroke-width="3"/>
  <path d="m213 38.11 2.6-3.4v7.2l-3.6-3.3 1-0.5z" stroke="#777" stroke-linecap="round" stroke-linejoin="round" stroke-miterlimit="10" stroke-width="1.2"/>
  <path d="m226.1 37.81-2.6-2.5v6.6l3.6-3.3-1-0.8z" stroke="#777" stroke-linecap="round" stroke-linejoin="round" stroke-miterlimit="10" stroke-width="1.2"/>
  <path d="m220.5 32.71-3.5 11.5" stroke="#777" stroke-linecap="round" stroke-linejoin="round" stroke-miterlimit="10" stroke-width="1.2"/>
  <defs>
    <radialGradient id="paint0_radial_213_205" cx="0" cy="0" r="1" gradientTransform="translate(123.6 217.9) scale(76.97 20.99)" gradientUnits="userSpaceOnUse">
      <stop offset="0"/>
      <stop stop-opacity=".0885" offset=".9115"/>
      <stop stop-opacity="0" offset="1"/>
    </radialGradient>
    <linearGradient id="paint1_linear_213_205" x1="121.7" x2="121.7" y1="199.7" y2="232.1" gradientUnits="userSpaceOnUse">
      <stop stop-color="#0A0A0A" offset="0"/>
      <stop stop-color="#2A2A2A" offset="1"/>
    </linearGradient>
    <linearGradient id="paint2_linear_213_205" x1="121.6" x2="121.6" y1="48.08" y2="213.1" gradientUnits="userSpaceOnUse">
      <stop stop-color="#040505" offset="0"/>
      <stop stop-color="#171717" offset="1"/>
    </linearGradient>
    <linearGradient id="paint3_linear_213_205" x1="121.8" x2="121.8" y1="51.14" y2="74.57" gradientUnits="userSpaceOnUse">
      <stop stop-color="#09604E" offset="0"/>
      <stop stop-color="#096156" offset="1"/>
    </linearGradient>
    <linearGradient id="paint4_linear_213_205" x1="121.7" x2="121.7" y1="216.8" y2="226.3" gradientUnits="userSpaceOnUse">
      <stop offset="0"/>
      <stop stop-color="#191919" offset="1"/>
    </linearGradient>
    <linearGradient id="paint5_linear_213_205" x1="122" x2="122" y1="202" y2="203.8" gradientUnits="userSpaceOnUse">
      <stop offset="0"/>
      <stop stop-color="#191919" offset="1"/>
    </linearGradient>
    <linearGradient id="paint6_linear_213_205" x1="121.6" x2="121.6" y1="49.13" y2="57.09" gradientUnits="userSpaceOnUse">
      <stop stop-color="#0A0A0A" offset="0"/>
      <stop stop-color="#0A0A0A" offset="1"/>
    </linearGradient>
    <linearGradient id="paint7_linear_213_205" x1="130.9" x2="130.9" y1="51.5" y2="54.27" gradientUnits="userSpaceOnUse">
      <stop stop-color="#393939" offset="0"/>
      <stop stop-color="#020202" offset="1"/>
    </linearGradient>
    <linearGradient id="paint8_linear_213_205" x1="122.1" x2="122.1" y1="52.74" y2="54.16" gradientUnits="userSpaceOnUse">
      <stop stop-color="#393939" offset="0"/>
      <stop stop-color="#020202" offset="1"/>
    </linearGradient>
    <linearGradient id="paint9_linear_213_205" x1="177.3" x2="177.3" y1="178.2" y2="197" gradientUnits="userSpaceOnUse">
      <stop stop-color="#009688" offset="0"/>
      <stop stop-color="#00827A" offset="1"/>
    </linearGradient>
    <linearGradient id="paint10_linear_213_205" x1="48.72" x2="48.72" y1="65.09" y2="80.51" gradientUnits="userSpaceOnUse">
      <stop stop-color="#009688" offset="0"/>
      <stop stop-color="#00827A" offset="1"/>
    </linearGradient>
    <linearGradient id="paint11_linear_213_205" x1="178.8" x2="178.8" y1="120" y2="143.1" gradientUnits="userSpaceOnUse">
      <stop stop-color="#009688" offset="0"/>
      <stop stop-color="#00827A" offset="1"/>
    </linearGradient>
  </defs>
</svg>